<?xml version="1.0" encoding="utf-8"?>
<!-- Generator: Adobe Illustrator 16.0.0, SVG Export Plug-In . SVG Version: 6.00 Build 0)  -->
<!DOCTYPE svg PUBLIC "-//W3C//DTD SVG 1.1//EN" "http://www.w3.org/Graphics/SVG/1.1/DTD/svg11.dtd">
<svg version="1.1" id="Layer_1" xmlns="http://www.w3.org/2000/svg" xmlns:xlink="http://www.w3.org/1999/xlink" x="0px" y="0px"
	 width="125.667px" height="101px" viewBox="0 0 125.667 101" enable-background="new 0 0 125.667 101" xml:space="preserve">
<path fill="#5FA9DD" d="M122.4,12.714c-4.38,1.942-9.087,3.256-14.027,3.847c5.042-3.022,8.915-7.81,10.739-13.513
	c-4.719,2.799-9.945,4.832-15.508,5.927c-4.456-4.746-10.803-7.712-17.826-7.712c-13.489,0-24.423,10.935-24.423,24.421
	c0,1.914,0.216,3.778,0.632,5.566C41.69,30.231,23.695,20.508,11.649,5.733C9.548,9.34,8.344,13.534,8.344,18.012
	c0,8.473,4.312,15.946,10.864,20.326c-4.004-0.126-7.77-1.225-11.062-3.054c-0.002,0.102-0.002,0.203-0.002,0.307
	c0,11.833,8.419,21.704,19.591,23.947c-2.049,0.557-4.206,0.856-6.435,0.856c-1.573,0-3.104-0.153-4.595-0.439
	c3.108,9.703,12.127,16.764,22.814,16.961C31.162,83.466,20.631,87.37,9.188,87.37c-1.971,0-3.915-0.115-5.826-0.34
	C14.171,93.959,27.008,98.002,40.8,98.002c44.921,0,69.484-37.214,69.484-69.485c0-1.06-0.023-2.112-0.07-3.159
	C114.985,21.913,119.127,17.612,122.4,12.714z"/>
</svg>
