<?xml version="1.0" encoding="utf-8"?>
<!-- Generator: Adobe Illustrator 16.0.0, SVG Export Plug-In . SVG Version: 6.00 Build 0)  -->
<!DOCTYPE svg PUBLIC "-//W3C//DTD SVG 1.1//EN" "http://www.w3.org/Graphics/SVG/1.1/DTD/svg11.dtd">
<svg version="1.1" id="Layer_1" xmlns="http://www.w3.org/2000/svg" xmlns:xlink="http://www.w3.org/1999/xlink" x="0px" y="0px"
	 width="125.667px" height="101px" viewBox="0 0 125.667 101" enable-background="new 0 0 125.667 101" xml:space="preserve">
<g>
	<g>
		<path fill="#007BB6" d="M88.42,3.667H8.769c-3.803,0-6.891,3.017-6.891,6.739v79.98c0,3.722,3.088,6.744,6.891,6.744H88.42
			c3.813,0,6.917-3.022,6.917-6.744v-79.98C95.337,6.684,92.233,3.667,88.42,3.667z"/>
		<path fill="#FFFFFF" d="M15.721,38.706H29.6v44.603H15.721V38.706z M22.668,16.531c4.432,0,8.032,3.605,8.032,8.043
			c0,4.437-3.601,8.042-8.032,8.042c-4.452,0-8.047-3.605-8.047-8.042C14.621,20.137,18.216,16.531,22.668,16.531"/>
		<path fill="#FFFFFF" d="M38.296,38.706h13.285v6.1h0.193c1.851-3.509,6.368-7.205,13.112-7.205
			c14.041,0,16.633,9.233,16.633,21.246v24.462H67.66V61.615c0-5.172-0.091-11.824-7.205-11.824c-7.211,0-8.311,5.639-8.311,11.454
			v22.063H38.296V38.706z"/>
	</g>
	<g>
		<path d="M114.357,75.737c1.967-0.238,2.996-1.323,2.996-3.144c0-2.227-1.344-3.301-4.112-3.301h-4.446v11.683h1.678V75.89h2.064
			l0.045,0.061l3.205,5.025h1.79l-3.443-5.208L114.357,75.737z M112.42,74.571h-1.947v-3.955h2.465c1.277,0,2.738,0.213,2.738,1.881
			C115.676,74.414,114.205,74.571,112.42,74.571z"/>
		<path d="M112.607,64.095c-6.206,0-11.069,4.858-11.069,11.05c0,6.206,4.863,11.054,11.069,11.054
			c6.207,0,11.06-4.848,11.06-11.054C123.667,68.953,118.814,64.095,112.607,64.095z M112.607,84.753
			c-5.294,0-9.437-4.178-9.437-9.608c0-5.416,4.143-9.6,9.437-9.6s9.442,4.184,9.442,9.6
			C122.05,80.575,117.901,84.753,112.607,84.753z"/>
	</g>
</g>
</svg>
